<svg xmlns="http://www.w3.org/2000/svg" xmlns:xlink="http://www.w3.org/1999/xlink" width="250" zoomAndPan="magnify"
	viewBox="0 0 187.5 37.5" height="50" preserveAspectRatio="xMidYMid meet" version="1.0">
	<defs>
		<g />
	</defs>
	<g fill="#ff6969" fill-opacity="1">
		<g transform="translate(14.884318, 28.895133)">
			<g>
				<path
					d="M 11.5 -20.75 L 10.890625 -7.640625 L 7.078125 -7.640625 L 6.46875 -20.75 Z M 8.984375 -4.90625 C 9.742188 -4.90625 10.382812 -4.640625 10.90625 -4.109375 C 11.425781 -3.578125 11.6875 -2.941406 11.6875 -2.203125 C 11.6875 -1.460938 11.425781 -0.820312 10.90625 -0.28125 C 10.382812 0.25 9.742188 0.515625 8.984375 0.515625 C 8.242188 0.515625 7.601562 0.25 7.0625 -0.28125 C 6.53125 -0.820312 6.265625 -1.460938 6.265625 -2.203125 C 6.265625 -2.941406 6.53125 -3.578125 7.0625 -4.109375 C 7.601562 -4.640625 8.242188 -4.90625 8.984375 -4.90625 Z M 8.984375 -4.90625 " />
			</g>
		</g>
	</g>
	<g fill="#ff6969" fill-opacity="1">
		<g transform="translate(-2.006537, 28.895133)">
			<g>
				<path
					d="M 13.96875 -25.140625 L 13.96875 -21.859375 C 13.351562 -21.859375 12.828125 -21.804688 12.390625 -21.703125 C 11.960938 -21.597656 11.640625 -21.40625 11.421875 -21.125 C 11.210938 -20.851562 11.132812 -20.460938 11.1875 -19.953125 L 11.640625 -15.53125 C 11.765625 -14.414062 11.644531 -13.515625 11.28125 -12.828125 C 10.914062 -12.140625 10.359375 -11.613281 9.609375 -11.25 C 8.867188 -10.882812 7.992188 -10.628906 6.984375 -10.484375 C 8.054688 -10.316406 8.960938 -10.050781 9.703125 -9.6875 C 10.441406 -9.332031 10.976562 -8.816406 11.3125 -8.140625 C 11.65625 -7.460938 11.765625 -6.554688 11.640625 -5.421875 L 11.1875 -1 C 11.132812 -0.5 11.210938 -0.113281 11.421875 0.15625 C 11.640625 0.4375 11.96875 0.628906 12.40625 0.734375 C 12.84375 0.835938 13.363281 0.890625 13.96875 0.890625 L 13.96875 4.1875 C 12.59375 4.1875 11.425781 4.085938 10.46875 3.890625 C 9.507812 3.691406 8.742188 3.375 8.171875 2.9375 C 7.597656 2.507812 7.203125 1.941406 6.984375 1.234375 C 6.765625 0.523438 6.707031 -0.328125 6.8125 -1.328125 L 7.265625 -5.609375 C 7.335938 -6.367188 7.207031 -6.960938 6.875 -7.390625 C 6.539062 -7.816406 6.050781 -8.117188 5.40625 -8.296875 C 4.757812 -8.472656 4.007812 -8.5625 3.15625 -8.5625 L 3.15625 -12.390625 C 4 -12.390625 4.742188 -12.476562 5.390625 -12.65625 C 6.035156 -12.832031 6.523438 -13.132812 6.859375 -13.5625 C 7.203125 -13.988281 7.335938 -14.582031 7.265625 -15.34375 L 6.8125 -19.59375 C 6.695312 -20.625 6.75 -21.492188 6.96875 -22.203125 C 7.1875 -22.910156 7.582031 -23.476562 8.15625 -23.90625 C 8.726562 -24.34375 9.492188 -24.65625 10.453125 -24.84375 C 11.421875 -25.039062 12.59375 -25.140625 13.96875 -25.140625 Z M 13.96875 -25.140625 " />
			</g>
		</g>
	</g>
	<g fill="#ff6969" fill-opacity="1">
		<g transform="translate(31.812956, 28.895133)">
			<g>
				<path
					d="M 4 -25.140625 C 5.375 -25.140625 6.539062 -25.039062 7.5 -24.84375 C 8.457031 -24.644531 9.222656 -24.328125 9.796875 -23.890625 C 10.367188 -23.460938 10.765625 -22.894531 10.984375 -22.1875 C 11.203125 -21.488281 11.257812 -20.632812 11.15625 -19.625 L 10.703125 -15.34375 C 10.617188 -14.582031 10.742188 -13.988281 11.078125 -13.5625 C 11.421875 -13.132812 11.914062 -12.832031 12.5625 -12.65625 C 13.207031 -12.476562 13.953125 -12.390625 14.796875 -12.390625 L 14.796875 -8.5625 C 13.960938 -8.5625 13.21875 -8.472656 12.5625 -8.296875 C 11.914062 -8.117188 11.421875 -7.816406 11.078125 -7.390625 C 10.742188 -6.960938 10.617188 -6.367188 10.703125 -5.609375 L 11.15625 -1.359375 C 11.257812 -0.335938 11.203125 0.523438 10.984375 1.234375 C 10.773438 1.953125 10.382812 2.523438 9.8125 2.953125 C 9.238281 3.390625 8.46875 3.703125 7.5 3.890625 C 6.539062 4.085938 5.375 4.1875 4 4.1875 L 4 0.890625 C 4.601562 0.890625 5.125 0.835938 5.5625 0.734375 C 6 0.628906 6.320312 0.4375 6.53125 0.15625 C 6.75 -0.113281 6.832031 -0.5 6.78125 -1 L 6.3125 -5.421875 C 6.195312 -6.546875 6.320312 -7.445312 6.6875 -8.125 C 7.050781 -8.8125 7.601562 -9.335938 8.34375 -9.703125 C 9.09375 -10.066406 9.972656 -10.328125 10.984375 -10.484375 C 9.921875 -10.640625 9.015625 -10.894531 8.265625 -11.25 C 7.523438 -11.613281 6.984375 -12.132812 6.640625 -12.8125 C 6.304688 -13.5 6.195312 -14.40625 6.3125 -15.53125 L 6.78125 -19.953125 C 6.832031 -20.460938 6.75 -20.851562 6.53125 -21.125 C 6.320312 -21.40625 6 -21.597656 5.5625 -21.703125 C 5.125 -21.804688 4.601562 -21.859375 4 -21.859375 Z M 4 -25.140625 " />
			</g>
		</g>
	</g>
	<g fill="#ff6969" fill-opacity="1">
		<g transform="translate(53.743414, 27.458564)">
			<g>
				<path
					d="M 8.296875 -2.8125 C 9.078125 -2.8125 9.703125 -2.929688 10.171875 -3.171875 C 10.648438 -3.421875 10.890625 -3.789062 10.890625 -4.28125 C 10.890625 -4.613281 10.796875 -4.890625 10.609375 -5.109375 C 10.421875 -5.335938 10.0625 -5.554688 9.53125 -5.765625 C 9.007812 -5.972656 8.226562 -6.21875 7.1875 -6.5 C 6.238281 -6.75 5.398438 -7.070312 4.671875 -7.46875 C 3.941406 -7.863281 3.375 -8.367188 2.96875 -8.984375 C 2.5625 -9.597656 2.359375 -10.363281 2.359375 -11.28125 C 2.359375 -12.207031 2.617188 -13.03125 3.140625 -13.75 C 3.660156 -14.476562 4.421875 -15.050781 5.421875 -15.46875 C 6.429688 -15.882812 7.664062 -16.09375 9.125 -16.09375 C 10.507812 -16.09375 11.71875 -15.914062 12.75 -15.5625 C 13.789062 -15.207031 14.6875 -14.753906 15.4375 -14.203125 L 13.59375 -11.46875 C 12.945312 -11.875 12.25 -12.195312 11.5 -12.4375 C 10.757812 -12.675781 10.015625 -12.796875 9.265625 -12.796875 C 8.503906 -12.796875 7.941406 -12.691406 7.578125 -12.484375 C 7.210938 -12.285156 7.03125 -11.988281 7.03125 -11.59375 C 7.03125 -11.320312 7.125 -11.09375 7.3125 -10.90625 C 7.5 -10.71875 7.859375 -10.519531 8.390625 -10.3125 C 8.921875 -10.113281 9.691406 -9.867188 10.703125 -9.578125 C 11.710938 -9.296875 12.59375 -8.96875 13.34375 -8.59375 C 14.09375 -8.226562 14.671875 -7.734375 15.078125 -7.109375 C 15.492188 -6.484375 15.703125 -5.664062 15.703125 -4.65625 C 15.703125 -3.519531 15.363281 -2.566406 14.6875 -1.796875 C 14.007812 -1.023438 13.113281 -0.445312 12 -0.0625 C 10.882812 0.3125 9.660156 0.5 8.328125 0.5 C 6.828125 0.5 5.5 0.285156 4.34375 -0.140625 C 3.1875 -0.578125 2.203125 -1.144531 1.390625 -1.84375 L 3.734375 -4.453125 C 4.335938 -3.984375 5.019531 -3.59375 5.78125 -3.28125 C 6.550781 -2.96875 7.390625 -2.8125 8.296875 -2.8125 Z M 8.296875 -2.8125 " />
			</g>
		</g>
	</g>
	<g fill="#ff6969" fill-opacity="1">
		<g transform="translate(72.784779, 27.458564)">
			<g>
				<path
					d="M 6.078125 -6.4375 C 6.179688 -5.59375 6.398438 -4.90625 6.734375 -4.375 C 7.078125 -3.851562 7.507812 -3.472656 8.03125 -3.234375 C 8.5625 -2.992188 9.15625 -2.875 9.8125 -2.875 C 10.53125 -2.875 11.21875 -2.988281 11.875 -3.21875 C 12.539062 -3.457031 13.1875 -3.773438 13.8125 -4.171875 L 15.671875 -1.640625 C 14.929688 -1.015625 14.039062 -0.5 13 -0.09375 C 11.957031 0.300781 10.773438 0.5 9.453125 0.5 C 7.671875 0.5 6.175781 0.144531 4.96875 -0.5625 C 3.769531 -1.269531 2.863281 -2.242188 2.25 -3.484375 C 1.644531 -4.734375 1.34375 -6.164062 1.34375 -7.78125 C 1.34375 -9.3125 1.632812 -10.703125 2.21875 -11.953125 C 2.8125 -13.210938 3.671875 -14.21875 4.796875 -14.96875 C 5.929688 -15.71875 7.316406 -16.09375 8.953125 -16.09375 C 10.441406 -16.09375 11.726562 -15.773438 12.8125 -15.140625 C 13.90625 -14.503906 14.75 -13.585938 15.34375 -12.390625 C 15.945312 -11.203125 16.25 -9.769531 16.25 -8.09375 C 16.25 -7.832031 16.242188 -7.550781 16.234375 -7.25 C 16.222656 -6.945312 16.203125 -6.675781 16.171875 -6.4375 Z M 8.953125 -12.984375 C 8.117188 -12.984375 7.445312 -12.679688 6.9375 -12.078125 C 6.425781 -11.484375 6.117188 -10.535156 6.015625 -9.234375 L 11.734375 -9.234375 C 11.722656 -10.367188 11.503906 -11.273438 11.078125 -11.953125 C 10.648438 -12.640625 9.941406 -12.984375 8.953125 -12.984375 Z M 8.953125 -12.984375 " />
			</g>
		</g>
	</g>
	<g fill="#ff6969" fill-opacity="1">
		<g transform="translate(91.826143, 27.458564)">
			<g>
				<path
					d="M 15.171875 -4.484375 C 15.171875 -3.898438 15.25 -3.472656 15.40625 -3.203125 C 15.570312 -2.941406 15.835938 -2.742188 16.203125 -2.609375 L 15.25 0.4375 C 14.320312 0.351562 13.539062 0.15625 12.90625 -0.15625 C 12.28125 -0.476562 11.785156 -0.960938 11.421875 -1.609375 C 10.828125 -0.898438 10.066406 -0.367188 9.140625 -0.015625 C 8.210938 0.328125 7.265625 0.5 6.296875 0.5 C 4.691406 0.5 3.410156 0.0390625 2.453125 -0.875 C 1.503906 -1.789062 1.03125 -2.96875 1.03125 -4.40625 C 1.03125 -6.09375 1.691406 -7.394531 3.015625 -8.3125 C 4.335938 -9.238281 6.203125 -9.703125 8.609375 -9.703125 L 10.703125 -9.703125 L 10.703125 -10.28125 C 10.703125 -11.09375 10.441406 -11.691406 9.921875 -12.078125 C 9.398438 -12.472656 8.632812 -12.671875 7.625 -12.671875 C 7.125 -12.671875 6.484375 -12.597656 5.703125 -12.453125 C 4.921875 -12.316406 4.140625 -12.117188 3.359375 -11.859375 L 2.28125 -14.9375 C 3.289062 -15.320312 4.34375 -15.609375 5.4375 -15.796875 C 6.53125 -15.992188 7.503906 -16.09375 8.359375 -16.09375 C 10.679688 -16.09375 12.394531 -15.617188 13.5 -14.671875 C 14.613281 -13.734375 15.171875 -12.375 15.171875 -10.59375 Z M 7.890625 -2.8125 C 8.390625 -2.8125 8.910156 -2.960938 9.453125 -3.265625 C 10.003906 -3.566406 10.421875 -3.988281 10.703125 -4.53125 L 10.703125 -7.0625 L 9.5625 -7.0625 C 8.269531 -7.0625 7.320312 -6.863281 6.71875 -6.46875 C 6.113281 -6.070312 5.8125 -5.488281 5.8125 -4.71875 C 5.8125 -4.125 5.992188 -3.65625 6.359375 -3.3125 C 6.722656 -2.976562 7.234375 -2.8125 7.890625 -2.8125 Z M 7.890625 -2.8125 " />
			</g>
		</g>
	</g>
	<g fill="#ff6969" fill-opacity="1">
		<g transform="translate(110.867508, 27.458564)">
			<g>
				<path
					d="M 2.203125 0 L 2.203125 -3.109375 L 4.25 -3.109375 L 4.25 -12.5 L 2.203125 -12.5 L 2.203125 -15.578125 L 7.796875 -15.578125 L 8.640625 -12.078125 C 9.203125 -13.410156 9.914062 -14.40625 10.78125 -15.0625 C 11.644531 -15.71875 12.703125 -16.046875 13.953125 -16.046875 C 14.484375 -16.046875 14.953125 -16.003906 15.359375 -15.921875 C 15.773438 -15.835938 16.160156 -15.722656 16.515625 -15.578125 L 15.109375 -11.75 C 14.828125 -11.832031 14.539062 -11.890625 14.25 -11.921875 C 13.96875 -11.960938 13.660156 -11.984375 13.328125 -11.984375 C 12.304688 -11.984375 11.410156 -11.566406 10.640625 -10.734375 C 9.878906 -9.910156 9.296875 -8.859375 8.890625 -7.578125 L 8.890625 -3.109375 L 11.96875 -3.109375 L 11.96875 0 Z M 12.75 -9.0625 L 12.75 -13.609375 L 13.4375 -15.578125 L 16.515625 -15.578125 L 15.65625 -9.0625 Z M 12.75 -9.0625 " />
			</g>
		</g>
	</g>
	<g fill="#ff6969" fill-opacity="1">
		<g transform="translate(129.908872, 27.458564)">
			<g>
				<path
					d="M 10.3125 -3.15625 C 10.945312 -3.15625 11.546875 -3.28125 12.109375 -3.53125 C 12.671875 -3.78125 13.234375 -4.097656 13.796875 -4.484375 L 15.859375 -1.5625 C 15.171875 -0.96875 14.335938 -0.472656 13.359375 -0.078125 C 12.378906 0.304688 11.28125 0.5 10.0625 0.5 C 8.394531 0.5 6.957031 0.15625 5.75 -0.53125 C 4.550781 -1.21875 3.628906 -2.175781 2.984375 -3.40625 C 2.335938 -4.632812 2.015625 -6.0625 2.015625 -7.6875 C 2.015625 -9.3125 2.34375 -10.753906 3 -12.015625 C 3.65625 -13.285156 4.59375 -14.28125 5.8125 -15 C 7.03125 -15.726562 8.476562 -16.09375 10.15625 -16.09375 C 11.332031 -16.09375 12.382812 -15.925781 13.3125 -15.59375 C 14.238281 -15.269531 15.085938 -14.785156 15.859375 -14.140625 L 13.84375 -11.359375 C 13.320312 -11.722656 12.765625 -12.007812 12.171875 -12.21875 C 11.585938 -12.425781 10.976562 -12.53125 10.34375 -12.53125 C 9.300781 -12.53125 8.457031 -12.160156 7.8125 -11.421875 C 7.175781 -10.679688 6.859375 -9.4375 6.859375 -7.6875 C 6.859375 -6.539062 7.007812 -5.632812 7.3125 -4.96875 C 7.613281 -4.3125 8.023438 -3.84375 8.546875 -3.5625 C 9.066406 -3.289062 9.65625 -3.15625 10.3125 -3.15625 Z M 10.3125 -3.15625 " />
			</g>
		</g>
	</g>
	<g fill="#ff6969" fill-opacity="1">
		<g transform="translate(148.950236, 27.458564)">
			<g>
				<path
					d="M 6.6875 -22.234375 L 6.6875 -14.046875 C 7.34375 -14.734375 8.054688 -15.242188 8.828125 -15.578125 C 9.597656 -15.921875 10.410156 -16.09375 11.265625 -16.09375 C 12.648438 -16.09375 13.707031 -15.6875 14.4375 -14.875 C 15.175781 -14.0625 15.546875 -12.914062 15.546875 -11.4375 L 15.546875 0 L 10.921875 0 L 10.921875 -10.15625 C 10.921875 -11.09375 10.8125 -11.742188 10.59375 -12.109375 C 10.382812 -12.484375 9.992188 -12.671875 9.421875 -12.671875 C 9.097656 -12.671875 8.78125 -12.59375 8.46875 -12.4375 C 8.164062 -12.289062 7.863281 -12.078125 7.5625 -11.796875 C 7.269531 -11.515625 6.976562 -11.175781 6.6875 -10.78125 L 6.6875 0 L 2.046875 0 L 2.046875 -21.765625 Z M 6.6875 -22.234375 " />
			</g>
		</g>
	</g>
	<g fill="#ff6969" fill-opacity="1">
		<g transform="translate(167.991601, 27.458564)">
			<g>
				<path
					d="M 16.78125 -15.578125 L 11.59375 0 C 11.132812 1.375 10.523438 2.53125 9.765625 3.46875 C 9.003906 4.40625 8.054688 5.125 6.921875 5.625 C 5.796875 6.132812 4.441406 6.4375 2.859375 6.53125 L 2.328125 3.25 C 3.359375 3.125 4.1875 2.929688 4.8125 2.671875 C 5.445312 2.421875 5.957031 2.078125 6.34375 1.640625 C 6.726562 1.210938 7.0625 0.664062 7.34375 0 L 5.765625 0 L 0.828125 -15.578125 L 5.71875 -15.578125 L 8.75 -2.96875 L 12.03125 -15.578125 Z M 16.78125 -15.578125 " />
			</g>
		</g>
	</g>
</svg>
